<svg id="Layer_1" data-name="Layer 1" xmlns="http://www.w3.org/2000/svg" xmlns:xlink="http://www.w3.org/1999/xlink" width="120" height="51.98" viewBox="0 0 120 51.98"><defs><linearGradient id="linear-gradient" x1="17.37" y1="53.24" x2="17.37" y2="1.26" gradientTransform="matrix(1, 0, 0, -1, 0, 53.25)" gradientUnits="userSpaceOnUse"><stop offset="0" stop-color="#ec008c"/><stop offset="0.48" stop-color="#ed1c24"/><stop offset="1" stop-color="#fff200"/></linearGradient></defs><title>urfu_logo_1</title><path d="M95.79,0.87a3.09,3.09,0,0,0,3.69,0L98.9,0a2.09,2.09,0,0,1-2.52,0Zm4.72,8.35v-7H99.08L96.18,7V2.18H94.76v7H96.2l2.88-4.77V9.22h1.43Z" transform="translate(0 -0.01)" style="fill:#231f20"/><path d="M52.71,7a1.1,1.1,0,0,1-1.17,1,2.53,2.53,0,0,1-1.28-.39V3.85a2.24,2.24,0,0,1,1.37-.51,1,1,0,0,1,1.08,1V7h0Zm1.47-.15V4.46a2.14,2.14,0,0,0-2.33-2.4,3.85,3.85,0,0,0-2,.56,1.09,1.09,0,0,0-.56-0.55l-0.91.83a1,1,0,0,1,.35.88v7.72h1.46V9a4,4,0,0,0,1.48.3,2.3,2.3,0,0,0,2.45-2.45" transform="translate(0 -0.01)" style="fill:#231f20"/><path d="M58.84,7.6a1.55,1.55,0,0,1-1.47.49,0.91,0.91,0,0,1-.69-0.85,1,1,0,0,1,1.08-1.09h1.08V7.6h0Zm8.53,1.62V2.17H62.55V6.54a1.52,1.52,0,0,1-1.33,1.65,0.84,0.84,0,0,1-.91-0.77v-3A2.16,2.16,0,0,0,57.9,2.06a3.46,3.46,0,0,0-2.46,1L56.2,4a2.47,2.47,0,0,1,1.54-.66,1,1,0,0,1,1.1.87V4.93H57.65a2.17,2.17,0,0,0-2.43,2.23,2.06,2.06,0,0,0,2.33,2.17,2.54,2.54,0,0,0,1.63-.68,2.67,2.67,0,0,0,2.07.72,2.52,2.52,0,0,0,2.69-2.89V3.37h2V9.22h1.43Z" transform="translate(0 -0.01)" style="fill:#231f20"/><polygon points="86.7 9.22 84.08 5.5 86.53 2.18 84.86 2.18 83.03 4.94 82.13 4.94 82.13 2.16 80.7 2.16 80.7 9.22 82.11 9.22 82.12 6.14 83.01 6.14 85.03 9.22 86.7 9.22" style="fill:#231f20"/><path d="M70.32,8h1.23a1.07,1.07,0,0,0,.91-1.18,1,1,0,0,0-.92-1.07H70.32V8ZM68.86,9.24V2.17h1.46v2.4h1c1.71,0,2.62,1,2.61,2.25a2.42,2.42,0,0,1-2.59,2.42H68.86Z" transform="translate(0 -0.01)" style="fill:#231f20"/><path d="M79.77,8.43l-0.6-1.06a3.12,3.12,0,0,1-1.74.76,1,1,0,0,1-1.17-.91V4.47A1.16,1.16,0,0,1,77.51,3.4,2.16,2.16,0,0,1,79,4.12l0.76-1a2.88,2.88,0,0,0-2.37-1.09,2.35,2.35,0,0,0-2.56,2.41V7.13c0,1.5,1.16,2.2,2.59,2.2a3.71,3.71,0,0,0,2.4-.91" transform="translate(0 -0.01)" style="fill:#231f20"/><polygon points="93.28 9.21 93.28 2.18 91.85 2.18 88.95 6.97 88.95 2.18 87.53 2.18 87.53 9.21 88.95 9.21 88.96 9.21 91.85 4.44 91.85 9.21 93.28 9.21" style="fill:#231f20"/><path d="M48.4,0H46.77L45.51,4.2c0,0.08-.06.16-0.07,0.24s0,0.16,0,.21V4.75a0.39,0.39,0,0,0,0-.09c0-.05,0-0.12,0-0.2a1.37,1.37,0,0,0-.07-0.24L43.38,0H41.72l3,6.56L44.52,7a2.17,2.17,0,0,1-2,1.15L42.7,9.34a3,3,0,0,0,3.17-1.93Z" transform="translate(0 -0.01)" style="fill:#231f20"/><path d="M115,12.8a3.09,3.09,0,0,0,3.7,0l-0.59-.86a2.09,2.09,0,0,1-2.52,0Zm4.72,8.35v-7h-1.43l-2.9,4.8v-4.8h-1.42v7h1.43l2.88-4.77v4.77h1.43Z" transform="translate(0 -0.01)" style="fill:#231f20"/><rect x="111.03" y="14.11" width="1.43" height="7.04" style="fill:#231f20"/><path d="M106.59,20h1.23a1.07,1.07,0,0,0,.91-1.18,1,1,0,0,0-.92-1.07h-1.21V20h0Zm-1.46,1.22V14.12h1.46v2.4h1c1.71,0,2.62,1,2.61,2.25a2.42,2.42,0,0,1-2.59,2.42h-2.51Z" transform="translate(0 -0.01)" style="fill:#231f20"/><path d="M48.52,19a1,1,0,0,1-1.06,1,0.93,0.93,0,0,1-.85-0.39V15.91h0v-0.2a1.19,1.19,0,0,1,.94-0.43,1,1,0,0,1,1,1V19h0ZM45.15,15.7v0.2h0v3.66a0.93,0.93,0,0,1-.85.39,1,1,0,0,1-1.06-1V16.28a1,1,0,0,1,1-1,1.2,1.2,0,0,1,.93.43M50,18.82V16.39c0-1.53-.7-2.4-2.22-2.4a2.39,2.39,0,0,0-1.16.3V13H45.15v1.33A2.39,2.39,0,0,0,44,14c-1.51,0-2.22.87-2.22,2.4v2.43A2.26,2.26,0,0,0,45.15,21v2.46h1.46V21a2.18,2.18,0,0,0,1.05.3A2.21,2.21,0,0,0,50,18.82" transform="translate(0 -0.01)" style="fill:#231f20"/><path d="M54.91,16.11V17H52.73V16.21a1,1,0,0,1,1.17-1,1,1,0,0,1,1,.89m1.63,4.22-0.62-1.1A3.09,3.09,0,0,1,54,20a1.12,1.12,0,0,1-1.25-1.14V18.19h3.66V16.48A2.26,2.26,0,0,0,53.89,14a2.36,2.36,0,0,0-2.64,2.56v2.34c0,1.57,1,2.36,2.61,2.36a4.36,4.36,0,0,0,2.69-.93" transform="translate(0 -0.01)" style="fill:#231f20"/><path d="M59.4,20A2.9,2.9,0,0,0,60,18.06V15.33h2V20H59.4Zm4,0V14.12H58.58V18c0,0.89-.52,1.94-1.29,2H57.15v2.91h1.39V21.17h4.24v1.71h1.43V20h-0.8Z" transform="translate(0 -0.01)" style="fill:#231f20"/><polygon points="103.65 21.14 103.65 14.11 102.22 14.11 102.22 16.86 99.32 16.86 99.32 14.11 97.9 14.11 97.9 21.14 99.32 21.14 99.32 18.06 102.22 18.06 102.22 21.14 103.65 21.14" style="fill:#231f20"/><path d="M75.58,19a1.1,1.1,0,0,1-1.17,1,2.52,2.52,0,0,1-1.28-.39V15.8a2.24,2.24,0,0,1,1.37-.51,1,1,0,0,1,1.08,1V19h0Zm1.47-.15V16.41A2.14,2.14,0,0,0,74.72,14a3.85,3.85,0,0,0-2,.56A1.09,1.09,0,0,0,72.21,14l-0.91.83a1,1,0,0,1,.35.88v7.72h1.46V21a4,4,0,0,0,1.48.3A2.3,2.3,0,0,0,77,18.84" transform="translate(0 -0.01)" style="fill:#231f20"/><path d="M81.72,19.55c-0.54.7-2.14,0.79-2.16-.36a1,1,0,0,1,1.08-1.09h1.08v1.44h0Zm8.53,1.62V14.12H85.42v4.37a1.51,1.51,0,0,1-1.33,1.65,0.84,0.84,0,0,1-.91-0.77v-3A2.16,2.16,0,0,0,80.76,14a3.46,3.46,0,0,0-2.46,1l0.77,0.95a2.48,2.48,0,0,1,1.54-.66,1,1,0,0,1,1.1.87v0.75h-1.2a2.17,2.17,0,0,0-2.43,2.23,2.06,2.06,0,0,0,2.33,2.17A2.54,2.54,0,0,0,82,20.6a2.66,2.66,0,0,0,2.07.72,2.52,2.52,0,0,0,2.69-2.89V15.32h2v5.85h1.43Z" transform="translate(0 -0.01)" style="fill:#231f20"/><path d="M93.19,20h1.23a1.07,1.07,0,0,0,.91-1.18,1,1,0,0,0-.93-1.07H93.19V20h0Zm-1.46,1.22V14.12h1.46v2.4h1c1.72,0,2.62,1,2.61,2.25a2.42,2.42,0,0,1-2.59,2.42H91.73Z" transform="translate(0 -0.01)" style="fill:#231f20"/><path d="M68.8,16.11V17H66.63V16.21a1,1,0,0,1,1.17-1,1,1,0,0,1,1,.89m1.63,4.22-0.62-1.1a3.09,3.09,0,0,1-2,.76,1.11,1.11,0,0,1-1.24-1.14V18.19h3.66V16.48A2.26,2.26,0,0,0,67.79,14a2.36,2.36,0,0,0-2.65,2.56v2.34c0,1.57,1,2.36,2.61,2.36a4.37,4.37,0,0,0,2.69-.93" transform="translate(0 -0.01)" style="fill:#231f20"/><path d="M47.8,26.07H46.21l-1.44,5.47a3.47,3.47,0,0,0-.16-1l-1.23-4.47H41.77s1.89,6,2.33,7a1.88,1.88,0,0,1-1.79,1.64l0.14,1.07a2.78,2.78,0,0,0,2.87-1.95Z" transform="translate(0 -0.01)" style="fill:#231f20"/><polygon points="54.47 33.09 54.47 26.06 53.03 26.06 53.03 28.81 50.13 28.81 50.13 26.06 48.72 26.06 48.72 33.09 50.13 33.09 50.13 30.01 53.03 30.01 53.03 33.09 54.47 33.09" style="fill:#231f20"/><polygon points="61.7 33.09 61.7 26.06 60.27 26.06 57.37 30.86 57.37 26.06 55.95 26.06 55.95 33.09 57.37 33.09 57.38 33.09 60.27 28.32 60.27 33.09 61.7 33.09" style="fill:#231f20"/><path d="M64.64,31.88h1.23a0.9,0.9,0,0,0,.91-1A0.84,0.84,0,0,0,65.85,30H64.64v1.88Zm0-4.59v1.52h1.05a0.68,0.68,0,0,0,.74-0.75,0.73,0.73,0,0,0-.72-0.77H64.64Zm-1.46,5.82v-7h2.51c1.73,0,2.27,1.05,2.24,1.86a1.55,1.55,0,0,1-.86,1.41A1.74,1.74,0,0,1,68.27,31a2.18,2.18,0,0,1-2.48,2.09H63.18Z" transform="translate(0 -0.01)" style="fill:#231f20"/><polygon points="95.19 26.06 95.19 27.26 96.97 27.26 96.97 33.11 97.06 33.11 98.4 33.11 98.49 33.11 98.49 27.26 100.27 27.26 100.27 26.06 95.19 26.06" style="fill:#231f20"/><polygon points="106.88 26.06 106.88 27.26 108.66 27.26 108.66 33.11 108.75 33.11 110.09 33.11 110.18 33.11 110.18 27.26 111.96 27.26 111.96 26.06 106.88 26.06" style="fill:#231f20"/><polygon points="94.13 33.09 94.13 26.06 92.7 26.06 89.8 30.86 89.8 26.06 88.38 26.06 88.38 33.09 89.8 33.09 89.81 33.09 92.7 28.32 92.7 33.09 94.13 33.09" style="fill:#231f20"/><path d="M79.72,30.92a1.1,1.1,0,0,1-1.17,1,2.52,2.52,0,0,1-1.28-.39V27.73a2.23,2.23,0,0,1,1.37-.52,1,1,0,0,1,1.08,1v2.69h0Zm1.47-.15V28.34a2.14,2.14,0,0,0-2.33-2.4,3.85,3.85,0,0,0-2,.56,1.09,1.09,0,0,0-.56-0.55l-0.91.83a1,1,0,0,1,.35.88v7.72h1.46V32.91a4,4,0,0,0,1.48.3,2.3,2.3,0,0,0,2.45-2.45" transform="translate(0 -0.01)" style="fill:#231f20"/><path d="M87.45,32.3l-0.6-1.06A3.12,3.12,0,0,1,85.1,32a1,1,0,0,1-1.17-.91V28.34a1.16,1.16,0,0,1,1.25-1.07,2.16,2.16,0,0,1,1.44.71l0.76-1A2.88,2.88,0,0,0,85,25.94a2.36,2.36,0,0,0-2.56,2.41V31c0,1.5,1.16,2.2,2.59,2.2a3.7,3.7,0,0,0,2.4-.91" transform="translate(0 -0.01)" style="fill:#231f20"/><path d="M104.68,28v0.87h-2.18V28.14a1,1,0,0,1,1.17-1,1,1,0,0,1,1,.89m1.63,4.22-0.62-1.1a3.09,3.09,0,0,1-2,.76,1.12,1.12,0,0,1-1.25-1.14V30.13h3.66V28.41a2.26,2.26,0,0,0-2.49-2.47A2.36,2.36,0,0,0,101,28.5v2.34c0,1.57,1,2.36,2.61,2.36a4.37,4.37,0,0,0,2.69-.93" transform="translate(0 -0.01)" style="fill:#231f20"/><path d="M73,28v0.87H70.79V28.14a1,1,0,0,1,1.17-1A1,1,0,0,1,73,28m1.63,4.22L74,31.17a3.09,3.09,0,0,1-2,.76,1.12,1.12,0,0,1-1.25-1.14V30.13h3.66V28.41A2.26,2.26,0,0,0,72,25.94a2.36,2.36,0,0,0-2.64,2.56v2.34c0,1.57,1,2.36,2.61,2.36a4.37,4.37,0,0,0,2.69-.93" transform="translate(0 -0.01)" style="fill:#231f20"/><path d="M95.32,49.26H93.75V50.9H93.17V47.26h0.58v1.51h1.57V47.26h0.59v3.65H95.32V49.26Zm-3.42-1-0.34.62L90.35,50.9H89.81V47.26h0.54v2.67l0,0,0.38-.67,1.18-2h0.53v3.65H91.94V48.23h0ZM86.79,50.4h1.54V47.26h0.58V50.4l0.39,0,0,1.58H88.76l0-1.09H86.2V47.26h0.59V50.4h0Zm-3.92-3.14h0.57v1.49h0.94a1.89,1.89,0,0,1,.38,0,1.09,1.09,0,0,1,.38.16,0.91,0.91,0,0,1,.29.32,1.12,1.12,0,0,1,.11.54,1,1,0,0,1-.11.51,1.07,1.07,0,0,1-.3.34,1.13,1.13,0,0,1-.39.19,1.45,1.45,0,0,1-.39.06H82.88V47.26Zm1.44,3.15,0.22,0a0.61,0.61,0,0,0,.38-0.29A0.55,0.55,0,0,0,85,49.8a0.57,0.57,0,0,0-.06-0.27,0.46,0.46,0,0,0-.16-0.17,0.74,0.74,0,0,0-.23-0.1,1.24,1.24,0,0,0-.27,0H83.45V50.4h0.86Zm-4-2.65v0.84a8.75,8.75,0,0,1,0,1,2.51,2.51,0,0,1-.16.69,1.42,1.42,0,0,1-.32.48,1.94,1.94,0,0,1-.5.34l-0.22-.41a2.1,2.1,0,0,0,.38-0.35,1.23,1.23,0,0,0,.22-0.39,2,2,0,0,0,.1-0.52q0-.3,0-0.72V47.26H82v3.65H81.47V47.76H80.31ZM76.2,45.7h2.68v0.56H76.82v1.66h1.81v0.55H76.82v1.89h2.06V50.9H76.2V45.7h0ZM74.36,51A0.45,0.45,0,0,1,74,50.84a0.49,0.49,0,0,1,0-.68A0.45,0.45,0,0,1,74.36,50a0.48,0.48,0,0,1,0,1m-1.87-2.51h-2V50.9H69.86V45.7H70.5v2.23h2V45.7h0.64v5.2H72.49V48.47h0ZM68.06,51a0.45,0.45,0,0,1-.33-0.14,0.49,0.49,0,0,1,0-.68A0.45,0.45,0,0,1,68.06,50a0.48,0.48,0,1,1,0,1m-2.78-.62a1.4,1.4,0,0,0,.35,0A1,1,0,0,0,66,50.14a0.89,0.89,0,0,0,.26-0.31,1,1,0,0,0,.1-0.48,1,1,0,0,0-.1-0.46A0.77,0.77,0,0,0,66,48.61a1.12,1.12,0,0,0-.37-0.14,2.09,2.09,0,0,0-.41,0H64.43v1.93h0.85ZM63.79,45.7h2.66v0.56h-2v1.63h1a2.61,2.61,0,0,1,.49.05,1.44,1.44,0,0,1,.52.21,1.29,1.29,0,0,1,.41.45,1.55,1.55,0,0,1,.17.77,1.47,1.47,0,0,1-.18.77,1.4,1.4,0,0,1-.43.46,1.62,1.62,0,0,1-.54.23,2.39,2.39,0,0,1-.51.06H63.79V45.7Zm-3.23,2.53-0.34.62L59,50.9H58.47V47.26H59v2.67l0,0,0.38-.67,1.18-2h0.53v3.65H60.6V48.23h0Zm-3.37,0-0.34.62L55.64,50.9H55.1V47.26h0.54v2.67l0,0,0.38-.67,1.18-2h0.53v3.65H57.24V48.23h0ZM53.48,51a1.27,1.27,0,0,1-1.06-.49A2.11,2.11,0,0,1,52,49.19a3.14,3.14,0,0,1,.11-0.85,1.94,1.94,0,0,1,.3-0.65,1.32,1.32,0,0,1,.48-0.41,1.39,1.39,0,0,1,.63-0.14,3,3,0,0,1,.63.06,1.74,1.74,0,0,1,.51.19l-0.14.42-0.43-.11a2.34,2.34,0,0,0-.52-0.06,0.75,0.75,0,0,0-.7.39,2.08,2.08,0,0,0-.23,1,3.85,3.85,0,0,0,0,.51,1.46,1.46,0,0,0,.13.45,0.88,0.88,0,0,0,.27.33,0.72,0.72,0,0,0,.44.13,2.26,2.26,0,0,0,.55-0.06l0.48-.15,0.15,0.44a2.53,2.53,0,0,1-.52.2,2.82,2.82,0,0,1-.73.08m-3,0a1.27,1.27,0,0,1-1.06-.49A2.12,2.12,0,0,1,49,49.2a3.14,3.14,0,0,1,.11-0.85,1.94,1.94,0,0,1,.3-0.65,1.32,1.32,0,0,1,.48-0.41,1.39,1.39,0,0,1,.63-0.14,3,3,0,0,1,.63.06,1.74,1.74,0,0,1,.51.19l-0.15.42-0.43-.11a2.34,2.34,0,0,0-.52-0.06,0.74,0.74,0,0,0-.7.39,2.08,2.08,0,0,0-.22,1,3.85,3.85,0,0,0,0,.51,1.47,1.47,0,0,0,.13.45,0.88,0.88,0,0,0,.27.33,0.72,0.72,0,0,0,.44.13,2.27,2.27,0,0,0,.55-0.06l0.48-.15,0.15,0.44a2.53,2.53,0,0,1-.52.2,2.82,2.82,0,0,1-.73.08M47,47.64a0.74,0.74,0,0,0-.42.11,0.77,0.77,0,0,0-.26.3,1.48,1.48,0,0,0-.13.44,3.56,3.56,0,0,0,0,.54,4.26,4.26,0,0,0,0,.6,1.65,1.65,0,0,0,.13.47,0.68,0.68,0,0,0,.68.42,0.69,0.69,0,0,0,.67-0.41,1.65,1.65,0,0,0,.14-0.47,4,4,0,0,0,0-.6,3.71,3.71,0,0,0,0-.53,1.44,1.44,0,0,0-.14-0.45,0.86,0.86,0,0,0-.26-0.31A0.69,0.69,0,0,0,47,47.64m0,3.37a1.42,1.42,0,0,1-.67-0.15,1.26,1.26,0,0,1-.45-0.41,1.78,1.78,0,0,1-.25-0.61,3.4,3.4,0,0,1-.08-0.75,3.49,3.49,0,0,1,.08-0.73,1.81,1.81,0,0,1,.25-0.62,1.31,1.31,0,0,1,.46-0.43,1.4,1.4,0,0,1,.7-0.16,1.47,1.47,0,0,1,.69.15,1.26,1.26,0,0,1,.46.41,1.71,1.71,0,0,1,.26.6,3.33,3.33,0,0,1,.08.74,3.38,3.38,0,0,1-.08.75,1.79,1.79,0,0,1-.26.62,1.3,1.3,0,0,1-.47.42,1.47,1.47,0,0,1-.71.16m-4-4.76v1.92h0.55a2.66,2.66,0,0,0,.4,0A0.78,0.78,0,0,0,44.28,48a0.7,0.7,0,0,0,.23-0.3,1.39,1.39,0,0,0,.09-0.54,1.1,1.1,0,0,0-.09-0.49,0.67,0.67,0,0,0-.23-0.27A0.74,0.74,0,0,0,44,46.27l-0.33,0H43Zm0,2.46V50.9H42.35V45.7h1.31a3.92,3.92,0,0,1,.5,0,1.32,1.32,0,0,1,.52.18,1.13,1.13,0,0,1,.41.43,1.62,1.62,0,0,1,.16.79,1.79,1.79,0,0,1-.15.79,1.29,1.29,0,0,1-.39.48,1.42,1.42,0,0,1-.54.24,2.83,2.83,0,0,1-.6.06H43ZM119.05,42l-0.43,0a1.79,1.79,0,0,0-.46.11,1,1,0,0,0-.36.24,0.59,0.59,0,0,0-.15.42,0.75,0.75,0,0,0,.11.44,0.46,0.46,0,0,0,.4.16,0.7,0.7,0,0,0,.22,0l0.25-.11,0.24-.14,0.18-.15V42h0ZM120,43.75l-0.26.08a1.13,1.13,0,0,1-.27,0,0.45,0.45,0,0,1-.25-0.06,0.43,0.43,0,0,1-.14-0.25l0-.14-0.4.26a1.42,1.42,0,0,1-.31.17,0.73,0.73,0,0,1-.24,0,1.16,1.16,0,0,1-.57-0.11,0.86,0.86,0,0,1-.31-0.28,0.91,0.91,0,0,1-.14-0.35,2.15,2.15,0,0,1,0-.33,1.06,1.06,0,0,1,.15-0.58,1.18,1.18,0,0,1,.42-0.39,2.12,2.12,0,0,1,.63-0.23,4.56,4.56,0,0,1,.79-0.08V41.25a0.79,0.79,0,0,0-.14-0.5,0.65,0.65,0,0,0-.53-0.18,2,2,0,0,0-.52.06l-0.43.13-0.14-.41a2.61,2.61,0,0,1,.56-0.23,2.24,2.24,0,0,1,.61-0.08,1.2,1.2,0,0,1,.92.29,1.11,1.11,0,0,1,.27.78v2.27H120v0.37h0Zm-4.22,0h-0.58V40.63h-1V40.14h2.59v0.49h-1v3.15h0Zm-2.6-1.65h-1.57v1.65H111V40.14h0.58v1.51h1.57V40.14h0.58v3.65h-0.58V42.14h0Zm-4.12-1.62a0.6,0.6,0,0,0-.35.1,0.89,0.89,0,0,0-.25.26,1.21,1.21,0,0,0-.14.35,1.61,1.61,0,0,0,0,.37h1.59a2.57,2.57,0,0,0,0-.43,0.94,0.94,0,0,0-.13-0.34,0.66,0.66,0,0,0-.25-0.23,0.81,0.81,0,0,0-.39-0.08m-0.79,1.57a4.56,4.56,0,0,0,0,.46,1.11,1.11,0,0,0,.12.42,0.79,0.79,0,0,0,.29.3,1,1,0,0,0,.53.11,3,3,0,0,0,.49,0,2.58,2.58,0,0,0,.55-0.16l0.17,0.43a3.17,3.17,0,0,1-.55.19,2.74,2.74,0,0,1-.68.08,1.87,1.87,0,0,1-.79-0.14,1.2,1.2,0,0,1-.49-0.4,1.52,1.52,0,0,1-.24-0.6,4.2,4.2,0,0,1-.06-0.75,4.31,4.31,0,0,1,0-.58,2.1,2.1,0,0,1,.19-0.64,1.44,1.44,0,0,1,.43-0.53A1.22,1.22,0,0,1,109,40a1.56,1.56,0,0,1,.79.17,1.1,1.1,0,0,1,.43.45,1.82,1.82,0,0,1,.18.66q0,0.38,0,.78h-2.22Zm-4,2.79H103.7l0-1.59,0.33,0a1.22,1.22,0,0,0,.17-0.23,1.44,1.44,0,0,0,.13-0.3,2.55,2.55,0,0,0,.09-0.43q0-.25.06-0.62l0.08-1.56h2.33v3.16h0.37v1.59H106.7l0-1.09h-2.43v1.09Zm0.81-4.24-0.06,1q0,0.3,0,.53a4,4,0,0,1-.06.43,2.77,2.77,0,0,1-.1.35,1.39,1.39,0,0,1-.14.29h1.65V40.64h-1.25Zm-2.38.47-0.34.62-1.22,2.06h-0.54V40.14h0.54v2.67h0l0.38-.67,1.18-2h0.53v3.65h-0.53V41.11h0Zm-4.19,2.76a2.22,2.22,0,0,1-.69-0.1,2.1,2.1,0,0,1-.52-0.25l0.22-.38a2.21,2.21,0,0,0,.44.16,1.94,1.94,0,0,0,.49.06,1,1,0,0,0,.6-0.16,0.55,0.55,0,0,0,.23-0.49,0.79,0.79,0,0,0,0-.2,0.55,0.55,0,0,0-.11-0.21,0.61,0.61,0,0,0-.23-0.16,1,1,0,0,0-.38-0.06H98V41.64h0.55a0.55,0.55,0,0,0,.64-0.6,0.7,0.7,0,0,0,0-.19,0.37,0.37,0,0,0-.11-0.17,0.62,0.62,0,0,0-.22-0.13,1.11,1.11,0,0,0-.36,0l-0.19,0-0.23,0-0.24.08-0.22.1-0.21-.4a2.64,2.64,0,0,1,.67-0.27A2.57,2.57,0,0,1,98.64,40a1.59,1.59,0,0,1,.54.08,1,1,0,0,1,.36.22,0.79,0.79,0,0,1,.2.32,1.22,1.22,0,0,1,.06.39,0.84,0.84,0,0,1-.15.52,0.91,0.91,0,0,1-.39.3,0.79,0.79,0,0,1,.47.33,1.06,1.06,0,0,1,.13.54,1.13,1.13,0,0,1-.11.51,1,1,0,0,1-.3.36,1.33,1.33,0,0,1-.44.22,2,2,0,0,1-.55.07m-2.88-3.35a0.6,0.6,0,0,0-.35.1,0.88,0.88,0,0,0-.25.26,1.2,1.2,0,0,0-.14.35,1.57,1.57,0,0,0,0,.37H96.4a2.57,2.57,0,0,0,0-.43,0.93,0.93,0,0,0-.13-0.34A0.65,0.65,0,0,0,96,40.6a0.81,0.81,0,0,0-.39-0.08m-0.79,1.57a4.55,4.55,0,0,0,0,.46A1.1,1.1,0,0,0,95,43a0.79,0.79,0,0,0,.29.3,1,1,0,0,0,.53.11,3,3,0,0,0,.49,0,2.58,2.58,0,0,0,.55-0.16L97,43.62a3.18,3.18,0,0,1-.55.19,2.74,2.74,0,0,1-.68.08A1.88,1.88,0,0,1,95,43.75a1.19,1.19,0,0,1-.49-0.4,1.51,1.51,0,0,1-.24-0.6A4.14,4.14,0,0,1,94.17,42a4.31,4.31,0,0,1,0-.58,2.11,2.11,0,0,1,.19-0.64,1.45,1.45,0,0,1,.43-0.53A1.22,1.22,0,0,1,95.59,40a1.56,1.56,0,0,1,.79.17,1.09,1.09,0,0,1,.43.45,1.82,1.82,0,0,1,.18.66q0,0.38,0,.78H94.81Zm-3.37,1a3.68,3.68,0,0,0,.4.23,1.09,1.09,0,0,0,.48.11,0.5,0.5,0,0,0,.39-0.16,1,1,0,0,0,.21-0.38A2,2,0,0,0,93,42.43c0-.16,0-0.3,0-0.42a5.39,5.39,0,0,0,0-.61A1.47,1.47,0,0,0,92.86,41a0.62,0.62,0,0,0-.22-0.27,0.63,0.63,0,0,0-.36-0.09,0.79,0.79,0,0,0-.24,0l-0.23.1-0.21.13L91.44,41v2.07h0Zm-0.15-2.94,0.14,0.38,0.37-.24A1.21,1.21,0,0,1,92.42,40a1,1,0,0,1,.61.17,1.18,1.18,0,0,1,.37.44,2,2,0,0,1,.19.63,5.23,5.23,0,0,1,0,.72,4.55,4.55,0,0,1,0,.65,1.94,1.94,0,0,1-.19.62,1.32,1.32,0,0,1-.4.46,1.11,1.11,0,0,1-.66.18,1.43,1.43,0,0,1-.89-0.36V45.3H90.85V40.14h0.44Zm-1.88-1H87.48v4.65H86.84v-5.2H90v5.2H89.4V39.14h0Zm-6.59,1.38a0.75,0.75,0,0,0-.42.11,0.78,0.78,0,0,0-.26.3,1.47,1.47,0,0,0-.13.44,3.62,3.62,0,0,0,0,.53,4.37,4.37,0,0,0,0,.6,1.66,1.66,0,0,0,.13.47,0.76,0.76,0,0,0,.26.31,0.75,0.75,0,0,0,.42.11,0.74,0.74,0,0,0,.41-0.11,0.72,0.72,0,0,0,.26-0.3,1.63,1.63,0,0,0,.14-0.47,4,4,0,0,0,0-.6,3.73,3.73,0,0,0,0-.54A1.45,1.45,0,0,0,83.49,41a0.86,0.86,0,0,0-.26-0.31,0.68,0.68,0,0,0-.41-0.11m0,3.37a1.42,1.42,0,0,1-.67-0.15,1.25,1.25,0,0,1-.45-0.41,1.77,1.77,0,0,1-.25-0.61A3.38,3.38,0,0,1,81.32,42a3.48,3.48,0,0,1,.08-0.73,1.83,1.83,0,0,1,.25-0.62,1.32,1.32,0,0,1,.46-0.43A1.4,1.4,0,0,1,82.81,40a1.48,1.48,0,0,1,.69.15,1.28,1.28,0,0,1,.46.41,1.74,1.74,0,0,1,.26.61,3.35,3.35,0,0,1,.08.75,3.38,3.38,0,0,1-.08.75,1.81,1.81,0,0,1-.26.62,1.31,1.31,0,0,1-.47.42,1.46,1.46,0,0,1-.71.16m-3.43-.11H78.77V40.14H81v0.5H79.36v3.15h0Zm-2.72-3.27a0.75,0.75,0,0,0-.42.11,0.76,0.76,0,0,0-.26.3,1.45,1.45,0,0,0-.13.44,3.62,3.62,0,0,0,0,.53,4.37,4.37,0,0,0,0,.6A1.64,1.64,0,0,0,76,43a0.68,0.68,0,0,0,.68.42,0.74,0.74,0,0,0,.41-0.11,0.72,0.72,0,0,0,.26-0.3,1.58,1.58,0,0,0,.14-0.47,4,4,0,0,0,0-.6,3.63,3.63,0,0,0,0-.54A1.45,1.45,0,0,0,77.31,41a0.84,0.84,0,0,0-.26-0.31,0.68,0.68,0,0,0-.41-0.11m0,3.37a1.42,1.42,0,0,1-.67-0.15,1.24,1.24,0,0,1-.45-0.41,1.76,1.76,0,0,1-.25-0.61,3.59,3.59,0,0,1,0-1.49,1.76,1.76,0,0,1,.25-0.62,1.32,1.32,0,0,1,.46-0.43,1.4,1.4,0,0,1,.7-0.16,1.49,1.49,0,0,1,.69.15,1.28,1.28,0,0,1,.46.41,1.74,1.74,0,0,1,.26.61,3.31,3.31,0,0,1,.08.75,3.34,3.34,0,0,1-.08.75,1.81,1.81,0,0,1-.26.62,1.31,1.31,0,0,1-.47.42,1.45,1.45,0,0,1-.71.16m-2.73-2.82a0.4,0.4,0,0,0-.06-0.23,0.43,0.43,0,0,0-.14-0.14,0.61,0.61,0,0,0-.17-0.07l-0.16,0H72.47v1h0.84a0.49,0.49,0,0,0,.57-0.54M74,42.72a0.55,0.55,0,0,0-.19-0.46,0.81,0.81,0,0,0-.51-0.15H72.47v1.18h0.91l0.23,0a0.57,0.57,0,0,0,.21-0.1A0.54,0.54,0,0,0,74,43,0.56,0.56,0,0,0,74,42.72m0.58,0a1,1,0,0,1-.3.76,1.17,1.17,0,0,1-.87.3H71.91V40.14h1.46a1.3,1.3,0,0,1,.79.23,0.79,0.79,0,0,1,.31.69,1,1,0,0,1-.11.47,0.71,0.71,0,0,1-.39.33,0.81,0.81,0,0,1,.5.3,1,1,0,0,1,.15.57M69,43.09a3.84,3.84,0,0,0,.4.23,1.09,1.09,0,0,0,.48.11,0.5,0.5,0,0,0,.39-0.16,1,1,0,0,0,.21-0.38,2,2,0,0,0,.08-0.46c0-.16,0-0.3,0-0.42a5.39,5.39,0,0,0,0-.61A1.45,1.45,0,0,0,70.45,41a0.63,0.63,0,0,0-.22-0.28,0.64,0.64,0,0,0-.36-0.09,0.79,0.79,0,0,0-.24,0l-0.23.1-0.21.13L69,41v2.07h0Zm-0.15-2.94L69,40.53l0.37-.24A1.22,1.22,0,0,1,70,40.05a1,1,0,0,1,.61.17,1.18,1.18,0,0,1,.37.44,2,2,0,0,1,.19.63,5,5,0,0,1,0,.72,4.38,4.38,0,0,1,0,.65,1.93,1.93,0,0,1-.19.62,1.31,1.31,0,0,1-.4.46,1.11,1.11,0,0,1-.66.18A1.43,1.43,0,0,1,69,43.55v1.75h-0.6V40.14h0.45Zm-2.48.38a0.6,0.6,0,0,0-.35.1,0.89,0.89,0,0,0-.25.26,1.2,1.2,0,0,0-.14.35,1.64,1.64,0,0,0,0,.37h1.59a2.57,2.57,0,0,0,0-.43A0.94,0.94,0,0,0,67,40.84a0.66,0.66,0,0,0-.25-0.23,0.81,0.81,0,0,0-.39-0.08M65.6,42.1c0,0.15,0,.3,0,0.46a1.11,1.11,0,0,0,.12.42,0.78,0.78,0,0,0,.29.3,1,1,0,0,0,.53.11,3,3,0,0,0,.49,0,2.57,2.57,0,0,0,.55-0.16l0.17,0.43a3.17,3.17,0,0,1-.55.19,2.74,2.74,0,0,1-.68.08,1.88,1.88,0,0,1-.79-0.14,1.2,1.2,0,0,1-.49-0.4,1.5,1.5,0,0,1-.24-0.6A4.08,4.08,0,0,1,65,42a4.44,4.44,0,0,1,0-.58,2.13,2.13,0,0,1,.19-0.64,1.45,1.45,0,0,1,.43-0.53A1.22,1.22,0,0,1,66.38,40a1.57,1.57,0,0,1,.79.17,1.1,1.1,0,0,1,.43.45,1.82,1.82,0,0,1,.18.66q0,0.38,0,.78H65.6ZM63.7,40.65H62.24V43.8h-0.6V40.14h2.65v3.65H63.7V40.63h0Zm-5.11.48-0.34.62L57,43.8H56.5V40.14H57v2.67h0l0.37-.67,1.18-2h0.53v3.65H58.62V41.11h0Zm-3.37,1H53.65V43.8H53.08V40.14h0.58v1.51h1.57V40.14h0.58v3.65H55.22V42.14h0ZM51.1,40.52a0.61,0.61,0,0,0-.35.1,0.88,0.88,0,0,0-.25.26,1.18,1.18,0,0,0-.15.35,1.57,1.57,0,0,0,0,.37H51.9a2.57,2.57,0,0,0,0-.43,0.93,0.93,0,0,0-.13-0.34,0.65,0.65,0,0,0-.25-0.23,0.81,0.81,0,0,0-.39-0.08M50.31,42.1a4.48,4.48,0,0,0,0,.46,1.1,1.1,0,0,0,.12.42,0.8,0.8,0,0,0,.29.3,1,1,0,0,0,.53.11,3,3,0,0,0,.49,0,2.58,2.58,0,0,0,.55-0.16l0.17,0.43a3.2,3.2,0,0,1-.55.19,2.73,2.73,0,0,1-.68.08,1.88,1.88,0,0,1-.79-0.14,1.2,1.2,0,0,1-.49-0.4,1.51,1.51,0,0,1-.24-0.6A4.14,4.14,0,0,1,49.66,42a4.41,4.41,0,0,1,0-.58,2.13,2.13,0,0,1,.19-0.64,1.46,1.46,0,0,1,.43-0.53A1.22,1.22,0,0,1,51.09,40a1.56,1.56,0,0,1,.79.17,1.1,1.1,0,0,1,.43.45,1.82,1.82,0,0,1,.18.66q0,0.38,0,.78H50.31Zm-4,1.69H45.73V40.14h0.74l0.79,1.8,0.14,0.28,0.12-.29,0.78-1.79H49v3.65H48.5V41l-0.07.13L47.58,43H47.21l-0.87-1.83L46.28,41v2.8h0Zm-1.83-2.67-0.34.62-1.21,2.06H42.34V40.14h0.54v2.67h0l0.38-.67,1.18-2H45v3.65H44.48V41.11h0Z" transform="translate(0 -0.01)" style="fill:#231f20"/><path d="M98.48,49.08L98,49.1a1.77,1.77,0,0,0-.46.11,1,1,0,0,0-.37.24,0.59,0.59,0,0,0-.15.42,0.77,0.77,0,0,0,.11.45,0.46,0.46,0,0,0,.4.16,0.7,0.7,0,0,0,.22,0l0.25-.11,0.24-.14L98.48,50v-1h0Zm0.95,1.78-0.26.08a1.07,1.07,0,0,1-.27,0,0.46,0.46,0,0,1-.25-0.06,0.43,0.43,0,0,1-.14-0.25l0-.15-0.39.26a1.46,1.46,0,0,1-.31.17,0.72,0.72,0,0,1-.24,0A1.16,1.16,0,0,1,97,50.88a0.87,0.87,0,0,1-.31-0.28,0.89,0.89,0,0,1-.14-0.35,2,2,0,0,1,0-.33,1.06,1.06,0,0,1,.15-0.58A1.19,1.19,0,0,1,97.06,49a2.09,2.09,0,0,1,.63-0.23,4.48,4.48,0,0,1,.79-0.08V48.37a0.8,0.8,0,0,0-.14-0.51,0.67,0.67,0,0,0-.54-0.18,2.07,2.07,0,0,0-.52.06l-0.43.13-0.14-.41a2.51,2.51,0,0,1,.56-0.23,2.27,2.27,0,0,1,.61-0.08,1.2,1.2,0,0,1,.92.29,1.11,1.11,0,0,1,.27.78v2.27h0.36v0.38h0Z" transform="translate(0 -0.01)" style="fill:#231f20"/><path d="M0.54,0L0,2.11c4.23,0,6,2.95,7.92,6.12L23.5,34.93a9.6,9.6,0,0,1,1.44,4.45c-0.06,3.93-5.16,5.37-8.21,5.52a14,14,0,0,1-6.43-1.31l-1.24,1.6C9.78,48.27,12.63,52,16.55,52c6.81,0,10.38-6.27,13.12-11.34l5.07-9.39L20,6c-1.36-2.26.87-3.9,3.24-3.91L23.81,0H0.54Z" transform="translate(0 -0.01)" style="fill:url(#linear-gradient)"/></svg>